#!OML:ASF H:\Pregnant\Project 1\Capture day 1\Session 1\femalepreg.ASF
:FULLY-SPECIFIED
:DEGREES
2636
root 2.52943 15.5832 33.853 -1204.57 -97.9695 1225.5
lowerback -11.6037 -1.07169 -8.77494
upperback -6.06098 -0.797566 -1.08332
thorax 0.195247 -0.340255 3.70709
lowerneck -19.9383 3.52616 3.16532
upperneck 24.0831 3.38184 1.3072
head 11.1503 1.91788 0.450817
rclavicle 9.64106e-015 -2.22639e-014
rhumerus -42.3221 -1.18495 -77.0681
rradius 45.3077
rwrist -4.02545
rhand 0.762883 -13.5851
rfingers 7.12502
rthumb 26.3209 -41.7788
lclavicle 9.64106e-015 -2.22639e-014
lhumerus -31.4444 -19.0159 85.7165
lradius 32.9386
lwrist 43.8147
lhand -24.348 -8.29976
lfingers 7.12502
lthumb 2.14122 21.6692
rfemur -36.7151 11.5757 14.4722
rtibia 44.3924
rfoot -16.1158 -16.1907
rtoes -3.53069
lfemur -34.0692 -11.6754 -10.8755
ltibia 25.7992
lfoot -11.6764 1.44527
ltoes -25.5731
2637
root 2.53844 15.575 33.8892 -1204.67 -97.9516 1225.53
lowerback -11.5089 -1.08424 -8.84788
upperback -6.00288 -0.80972 -1.07206
thorax 0.206997 -0.345006 3.75889
lowerneck -19.9653 3.50422 3.17694
upperneck 23.9901 3.36406 1.25624
head 11.1216 1.9052 0.427105
rclavicle -1.08338e-014 -3.18055e-015
rhumerus -42.2208 -0.765469 -77.4522
rradius 46.0554
rwrist -4.23511
rhand 0.0209583 -13.6748
rfingers 7.12502
rthumb 25.6104 -41.9727
lclavicle -1.08338e-014 -3.18055e-015
lhumerus -31.2958 -18.6609 85.2994
lradius 32.5783
lwrist 44.1425
lhand -24.3788 -7.96667
lfingers 7.12502
lthumb 2.11156 22.0026
rfemur -36.9447 11.5997 15.0501
rtibia 44.7399
rfoot -16.6979 -16.1919
rtoes -3.70756
lfemur -34.136 -11.7809 -11.049
ltibia 26.034
lfoot -11.7738 1.57241
ltoes -25.3809
2638
root 2.54754 15.5662 33.9265 -1205.26 -97.9455 1226.06
lowerback -11.4092 -1.11864 -8.91833
upperback -5.9509 -0.852471 -1.07002
thorax 0.213445 -0.365132 3.7961
lowerneck -19.9957 3.48727 3.16535
upperneck 23.9126 3.35586 1.22105
head 11.0986 1.89664 0.414699
rclavicle -1.16289e-014 3.33958e-014
rhumerus -42.1278 -0.342831 -77.8284
rradius 46.7845
rwrist -4.4581
rhand -0.851659 -13.7186
rfingers 7.12502
rthumb 24.7744 -42.134
lclavicle -1.16289e-014 3.33958e-014
lhumerus -31.1755 -18.3878 84.9108
lradius 32.2021
lwrist 44.4624
lhand -24.4435 -7.61221
lfingers 7.12502
lthumb 2.04906 22.3577
rfemur -37.1585 11.5593 15.5811
rtibia 45.0508
rfoot -17.2679 -16.3188
rtoes -3.79974
lfemur -34.1939 -11.9575 -11.2556
ltibia 26.201
lfoot -11.8242 1.68106
ltoes -25.1987
2639
root 2.55624 15.5572 33.9646 -1206.21 -97.9496 1226.96
lowerback -11.3193 -1.16742 -8.97516
upperback -5.90277 -0.915296 -1.07875
thorax 0.223694 -0.396051 3.81202
lowerneck -20.0086 3.47369 3.16299
upperneck 23.8252 3.3543 1.1711
head 11.0691 1.89003 0.396004
rclavicle -7.85199e-015 -2.38542e-014
rhumerus -42.0406 0.0724757 -78.2031
rradius 47.4838
rwrist -4.68671
rhand -1.83818 -13.7029
rfingers 7.12502
rthumb 23.8286 -42.2451
lclavicle -7.85199e-015 -2.38542e-014
lhumerus -31.0915 -18.2323 84.5522
lradius 31.8343
lwrist 44.7965
lhand -24.5471 -7.21861
lfingers 7.12502
lthumb 1.949 22.7522
rfemur -37.3627 11.4852 16.0727
rtibia 45.3238
rfoot -17.8325 -16.5446
rtoes -3.8178
lfemur -34.2437 -12.1689 -11.4889
ltibia 26.3132
lfoot -11.842 1.76358
ltoes -25.0563
2640
root 2.56436 15.5483 34.0024 -1207.42 -97.9661 1228.14
lowerback -11.2507 -1.22142 -9.01801
upperback -5.86383 -0.985421 -1.10043
thorax 0.236619 -0.431345 3.80553
lowerneck -20.0221 3.45253 3.12656
upperneck 23.7498 3.34271 1.15703
head 11.0427 1.88025 0.394562
rclavicle 1.41137e-014 3.49861e-014
rhumerus -41.9717 0.467819 -78.5719
rradius 48.1538
rwrist -4.92424
rhand -2.92802 -13.6304
rfingers 7.12502
rthumb 22.783 -42.305
lclavicle 1.41137e-014 3.49861e-014
lhumerus -30.9825 -18.0481 84.1806
lradius 31.3852
lwrist 44.9642
lhand -24.6813 -6.88397
lfingers 7.12502
lthumb 1.81934 23.088
rfemur -37.5711 11.3979 16.5271
rtibia 45.5538
rfoot -18.3885 -16.8469
rtoes -3.80705
lfemur -34.3068 -12.4093 -11.7326
ltibia 26.3891
lfoot -11.8338 1.81633
ltoes -24.8964
